# xmcd
# Copyright (C) 1995-1998 Ti Kan
#
# Track frame offsets:
#       150
#       15312
#       34119
#       50247
#       66001
#       81082
#       101704
#       116867
#       130082
#       145713
#       164826
#
# Disc length: 2539 seconds
#
# Revision: 0
# Processed by: cddbd v1.5.2PL0 Copyright (c) Steve Scherf et al.
# Submitted via: CD-Import v1.0
#
DISCID=9809e90b
DTITLE=Jolly Jumpers - Fantom Zone
DYEAR=2008
DGENRE=
TTITLE0=The Number
TTITLE1=Please Don't Drag Me Down
TTITLE2=Mountain Chant
TTITLE3=Rhythm Of Fear
TTITLE4=I Feel Power
TTITLE5=Yesterday Tomorrow
TTITLE6=Colorado
TTITLE7=Saturday Nightmare
TTITLE8=Fat King Mescaline
TTITLE9=Silver Ring
TTITLE10=I'll Keep To This
EXTD=
EXTT0=
EXTT1=
EXTT2=
EXTT3=
EXTT4=
EXTT5=
EXTT6=
EXTT7=
EXTT8=
EXTT9=
EXTT10=
PLAYORDER=
